<svg xmlns="http://www.w3.org/2000/svg" width="74" height="74" viewBox="0 0 74 74">
  <g id="Path_3860" data-name="Path 3860" fill="none" stroke-linecap="round" stroke-dasharray="0.1 10.11">
    <path d="M37,0A37,37,0,1,1,0,37,37,37,0,0,1,37,0Z" stroke="none"/>
    <path d="M 37 0 C 37.00374221801758 0 37.00934982299805 0 37.01309204101562 0 C 37.04215240478516 1.52587890625e-05 37.07120895385742 6.103515625e-05 37.10025024414062 0.0001373291015625 C 37.92867660522461 0.0012359619140625 38.59847640991211 0.6736907958984375 38.59627532958984 1.502113342285156 C 38.59407806396484 2.329879760742188 37.92185592651367 3.000129699707031 37.09433364868164 3.000129699707031 C 37.09367752075195 3.000129699707031 37.09295654296875 3.0001220703125 37.09230041503906 3.0001220703125 L 37 3 C 36.17157363891602 2.9989013671875 35.5 2.326438903808594 35.5 1.498008728027344 C 35.5 0.6711044311523438 36.16910552978516 0.0013580322265625 36.99544143676758 0 C 36.99668884277344 0 36.99875259399414 0 37 0 Z M 46.67237091064453 1.333023071289062 C 46.80793762207031 1.333030700683594 46.94586944580078 1.351577758789062 47.08278656005859 1.390472412109375 C 47.09469223022461 1.393836975097656 47.10659408569336 1.397201538085938 47.11849212646484 1.400581359863281 C 47.13106918334961 1.404144287109375 47.14321136474609 1.407600402832031 47.15578460693359 1.411178588867188 C 47.16353607177734 1.413383483886719 47.17128753662109 1.415596008300781 47.17903900146484 1.417816162109375 C 47.97593688964844 1.644172668457031 48.43756103515625 2.47344970703125 48.21011352539062 3.270034790039062 C 48.02175903320312 3.929664611816406 47.42006683349609 4.360008239746094 46.76622009277344 4.360008239746094 C 46.63045883178711 4.360008239746094 46.49236297607422 4.341438293457031 46.35535049438477 4.302513122558594 L 46.26697540283203 4.277412414550781 C 45.47007751464844 4.051048278808594 45.00668716430664 3.221275329589844 45.23197555541992 2.424064636230469 C 45.41854476928711 1.763832092285156 46.01888275146484 1.332992553710938 46.67237091064453 1.333023071289062 Z M 55.61208343505859 5.2626953125 C 55.87993621826172 5.2626953125 56.15111923217773 5.334541320800781 56.39599609375 5.485267639160156 C 56.39599609375 5.485267639160156 56.39729309082031 5.486068725585938 56.39729309082031 5.486068725585938 C 56.39789581298828 5.486434936523438 56.39850997924805 5.48681640625 56.39911270141602 5.487190246582031 C 56.427490234375 5.50469970703125 56.45584869384766 5.522239685058594 56.48417663574219 5.539825439453125 C 57.18865203857422 5.975723266601562 57.40558624267578 6.899696350097656 56.96872711181641 7.603584289550781 C 56.68444061279297 8.061637878417969 56.19334411621094 8.313606262207031 55.69084930419922 8.313606262207031 C 55.42117309570312 8.313606262207031 55.14820098876953 8.24102783203125 54.90217590332031 8.088790893554688 L 54.82399749755859 8.040428161621094 C 54.11953735351562 7.604522705078125 53.90105056762695 6.679588317871094 54.33599853515625 5.974525451660156 C 54.61926651000977 5.515365600585938 55.10980224609375 5.262687683105469 55.61208343505859 5.2626953125 Z M 63.14270782470703 11.48208236694336 C 63.54784774780273 11.48210144042969 63.95172500610352 11.64559936523438 64.24727630615234 11.96799850463867 C 64.25291442871094 11.97412872314453 64.258544921875 11.98026275634766 64.26417541503906 11.98639678955078 C 64.26417541503906 11.98639678955078 64.26419830322266 11.98641967773438 64.26419830322266 11.98641967773438 C 64.26595306396484 11.98833084106445 64.26770782470703 11.99024200439453 64.26946258544922 11.99215316772461 C 64.27180480957031 11.99470901489258 64.27263641357422 11.9956169128418 64.27497863769531 11.99817276000977 C 64.27561187744141 11.99885559082031 64.27623748779297 11.99953842163086 64.27686309814453 12.00022506713867 C 64.27999114990234 12.00363159179688 64.28167724609375 12.00547409057617 64.28480529785156 12.00888442993164 C 64.28508758544922 12.00919723510742 64.28536987304688 12.00950622558594 64.28565979003906 12.00981521606445 C 64.28800201416016 12.01237106323242 64.29068756103516 12.01530838012695 64.29302978515625 12.01786804199219 C 64.29402923583984 12.01895904541016 64.29503631591797 12.02005386352539 64.29603576660156 12.02114486694336 C 64.29681396484375 12.02199554443359 64.29963684082031 12.02508163452148 64.30042266845703 12.02593612670898 C 64.30523681640625 12.03119659423828 64.31005096435547 12.03646087646484 64.31486511230469 12.04172515869141 C 64.31510162353516 12.04198455810547 64.31531524658203 12.0422248840332 64.31555938720703 12.04248428344727 C 64.31633758544922 12.04333877563477 64.31639862060547 12.04340362548828 64.31717681884766 12.04425811767578 C 64.87450408935547 12.65500640869141 64.83195495605469 13.60136032104492 64.22139739990234 14.15954971313477 C 63.93337631225586 14.42287063598633 63.57035064697266 14.55284881591797 63.2083740234375 14.55284881591797 C 62.80192947387695 14.55284881591797 62.39680862426758 14.38896560668945 62.10071182250977 14.06596374511719 L 62.03858947753906 13.99818801879883 C 61.47878646850586 13.38752365112305 61.51941299438477 12.4379997253418 62.12932586669922 11.87738800048828 C 62.41723251342773 11.61274719238281 62.78046798706055 11.48207092285156 63.14270782470703 11.48208236694336 Z M 68.70439910888672 19.50981521606445 C 69.25090789794922 19.50982666015625 69.77730560302734 19.81006622314453 70.04130554199219 20.33076095581055 C 70.05815887451172 20.36410140991211 70.07431030273438 20.39617919921875 70.09107208251953 20.42958068847656 C 70.45922088623047 21.16836547851562 70.16072845458984 22.065673828125 69.42228698730469 22.43633651733398 C 69.20619201660156 22.54480743408203 68.97643280029297 22.59616851806641 68.74993896484375 22.59616851806641 C 68.200439453125 22.59616851806641 67.67083740234375 22.29351043701172 67.40695953369141 21.76957321166992 L 67.36562347412109 21.6875 C 66.99297332763672 20.94762420654297 67.29027557373047 20.04492568969727 68.02964782714844 19.6712760925293 C 68.24644470214844 19.56171798706055 68.47714996337891 19.50981140136719 68.70439910888672 19.50981521606445 Z M 71.86272430419922 28.74843215942383 C 72.56570434570312 28.74849700927734 73.19218444824219 29.24540328979492 73.33121490478516 29.96074295043945 C 73.33235168457031 29.96664810180664 73.33341217041016 29.97212982177734 73.33454132080078 29.97803497314453 C 73.33599090576172 29.98557662963867 73.33744049072266 29.99312591552734 73.33888244628906 30.00066757202148 C 73.33934020996094 30.00303268432617 73.33969116210938 30.0048828125 73.34014129638672 30.00724411010742 C 73.34036254882812 30.00839614868164 73.34058380126953 30.00955200195312 73.34080505371094 30.01070404052734 C 73.34351348876953 30.02487945556641 73.34629821777344 30.03947067260742 73.34899139404297 30.05365371704102 C 73.34962463378906 30.05701065063477 73.35026550292969 30.06036758422852 73.35089874267578 30.06372451782227 C 73.50637817382812 30.87743759155273 72.97260284423828 31.66221237182617 72.15867614746094 31.81657409667969 C 72.06418609619141 31.83449554443359 71.97018432617188 31.84312438964844 71.87739562988281 31.84312438964844 C 71.17090606689453 31.84312438964844 70.54086303710938 31.34197616577148 70.40345001220703 30.62273788452148 L 70.38622283935547 30.53258895874023 C 70.23075103759766 29.71887588500977 70.76419067382812 28.93230056762695 71.57767486572266 28.77573776245117 C 71.67345428466797 28.75730133056641 71.76870727539062 28.7484245300293 71.86272430419922 28.74843215942383 Z M 72.37494659423828 38.50557708740234 C 72.41691589355469 38.50558090209961 72.45932006835938 38.50733184814453 72.50189971923828 38.51089859008789 C 73.32743835449219 38.58006286621094 73.93968963623047 39.3052864074707 73.86941528320312 40.1307258605957 C 73.86907958984375 40.13470458984375 73.86874389648438 40.1386833190918 73.86841583251953 40.14266204833984 C 73.86728668212891 40.15608978271484 73.86616516113281 40.16930770874023 73.86502075195312 40.18273162841797 C 73.86366271972656 40.1986198425293 73.86229705810547 40.21450424194336 73.86092376708984 40.23038864135742 C 73.79438781738281 41.01189422607422 73.14012908935547 41.60139083862305 72.37020111083984 41.60139083862305 C 72.32691955566406 41.60139083862305 72.28318786621094 41.59952545166016 72.23926544189453 41.59572601318359 C 71.41390991210938 41.52433776855469 70.80181121826172 40.79731369018555 70.87208557128906 39.97187423706055 L 70.87989044189453 39.8802490234375 C 70.94654083251953 39.09738540649414 71.60310363769531 38.50553131103516 72.37494659423828 38.50557708740234 Z M 70.22810363769531 48.02916717529297 C 70.40419769287109 48.02917098999023 70.58329010009766 48.06037139892578 70.75771331787109 48.12617492675781 C 71.53049468994141 48.417724609375 71.92090606689453 49.27849960327148 71.63238525390625 50.05141448974609 C 71.6236572265625 50.07455444335938 71.6160888671875 50.09458160400391 71.60732269287109 50.11769866943359 C 71.60324859619141 50.12842559814453 71.59918212890625 50.13914489746094 71.59510040283203 50.14986801147461 C 71.59426879882812 50.15206909179688 71.59370422363281 50.15353393554688 71.59287261962891 50.15573501586914 C 71.36487579345703 50.75257873535156 70.79680633544922 51.11959838867188 70.19361114501953 51.11959838867188 C 70.01652526855469 51.11959838867188 69.83640289306641 51.08796691894531 69.66097259521484 51.021240234375 C 68.88667297363281 50.72669982910156 68.49688720703125 49.85991287231445 68.79037475585938 49.08521270751953 L 68.8228759765625 48.99941253662109 C 69.05030822753906 48.3990478515625 69.62168884277344 48.02914428710938 70.22810363769531 48.02916717529297 Z M 65.55284881591797 56.6019172668457 C 65.86338806152344 56.6019287109375 66.17665100097656 56.69784545898438 66.44522094726562 56.89668655395508 C 67.11105346679688 57.38961029052734 67.25047302246094 58.32842636108398 66.75663757324219 58.99357604980469 C 66.73681640625 59.02036285400391 66.71693420410156 59.04712677001953 66.69703674316406 59.07386016845703 C 66.69694519042969 59.07398223876953 66.69683074951172 59.07413482666016 66.69674682617188 59.07425689697266 C 66.69605255126953 59.07518768310547 66.69554138183594 59.07587432861328 66.69484710693359 59.07680130004883 C 66.40071868896484 59.47102355957031 65.95000457763672 59.67914581298828 65.4932861328125 59.67914581298828 C 65.18231964111328 59.67914581298828 64.86849975585938 59.58255767822266 64.59972381591797 59.38245010375977 C 63.93523788452148 58.88773727416992 63.7968864440918 57.94747543334961 64.29072570800781 57.28231048583984 L 64.34551239013672 57.20852661132812 C 64.64013671875 56.81167602539062 65.09355163574219 56.60189819335938 65.55284881591797 56.6019172668457 Z M 58.71815490722656 63.58344268798828 C 59.1668815612793 63.58348083496094 59.61095428466797 63.78362274169922 59.90681457519531 64.16557312011719 C 60.41296768188477 64.81902313232422 60.29443740844727 65.75771331787109 59.64271545410156 66.26495361328125 C 59.61252212524414 66.28835296630859 59.58328247070312 66.31093597412109 59.55300903320312 66.33424377441406 C 59.281494140625 66.54179382324219 58.96173095703125 66.64225769042969 58.64434051513672 66.64225769042969 C 58.19567108154297 66.64225769042969 57.75186157226562 66.44135284423828 57.45668792724609 66.05816650390625 C 56.95114898681641 65.40187072753906 57.07279968261719 64.45931243896484 57.72841262817383 63.95288848876953 L 57.80116271972656 63.89668655395508 C 58.07442855834961 63.68560409545898 58.3974494934082 63.58341598510742 58.71815490722656 63.58344268798828 Z M 50.24971008300781 68.44481658935547 C 50.84467315673828 68.44483947753906 51.40815734863281 68.80074310302734 51.64385986328125 69.38614654541016 C 51.95249938964844 70.15270233154297 51.58269500732422 71.02320861816406 50.81769561767578 71.33362579345703 C 50.79916763305664 71.34108734130859 50.78340148925781 71.34742736816406 50.76485443115234 71.3548583984375 C 50.76185607910156 71.35606384277344 50.75885009765625 71.35726928710938 50.75584411621094 71.35847473144531 C 50.75475311279297 71.35890960693359 50.75463104248047 71.35896301269531 50.7535400390625 71.35939788818359 C 50.75053405761719 71.36060333251953 50.74752044677734 71.36180877685547 50.74451446533203 71.36301422119141 C 50.74342346191406 71.36344909667969 50.74185180664062 71.36407470703125 50.74076080322266 71.36451721191406 C 50.73866271972656 71.3653564453125 50.7365608215332 71.36619567871094 50.73445892333984 71.36703491210938 C 50.72791290283203 71.36965179443359 50.72092056274414 71.37245178222656 50.71437072753906 71.37506103515625 C 50.53288650512695 71.4471435546875 50.34574890136719 71.48130035400391 50.16167068481445 71.48130035400391 C 49.56705093383789 71.48130035400391 49.00465393066406 71.12478637695312 48.77046203613281 70.53855133056641 C 48.463134765625 69.76924133300781 48.83731079101562 68.89559936523438 49.6062126159668 68.58723449707031 L 49.69141387939453 68.55306243896484 C 49.87457656860352 68.47959899902344 50.06365585327148 68.44480895996094 50.24971008300781 68.44481658935547 Z M 40.77788543701172 70.80155181884766 C 41.53642272949219 70.80158996582031 42.18842315673828 71.37486267089844 42.26993560791016 72.145751953125 C 42.35678863525391 72.96722412109375 41.76311492919922 73.70291900634766 40.94282913208008 73.79239654541016 C 40.92948532104492 73.79380798339844 40.9169921875 73.79512786865234 40.90364456176758 73.79652404785156 C 40.88148880004883 73.79884338378906 40.85932922363281 73.8011474609375 40.83716201782227 73.80343627929688 C 40.83473205566406 73.80368804931641 40.83443450927734 73.80371856689453 40.83200836181641 73.80396270751953 C 40.78047943115234 73.80919647216797 40.72936630249023 73.81175994873047 40.67866897583008 73.81175994873047 C 39.92034530639648 73.81175994873047 39.27001953125 73.23825073242188 39.19058609008789 72.46714782714844 C 39.1057014465332 71.64307403564453 39.70482635498047 70.90532684326172 40.52877426147461 70.81932830810547 L 40.62031173706055 70.80977630615234 C 40.67326736450195 70.80424499511719 40.72578430175781 70.80154418945312 40.77788543701172 70.80155181884766 Z M 30.91829681396484 70.48139190673828 C 31.00234603881836 70.48139953613281 31.08765411376953 70.48849487304688 31.17327499389648 70.50315093994141 L 31.26367568969727 70.51862335205078 C 32.08022689819336 70.65840911865234 32.62973785400391 71.43382263183594 32.49106216430664 72.25056457519531 C 32.36691665649414 72.98165893554688 31.73343658447266 73.49803161621094 31.01626968383789 73.49803161621094 C 30.93225860595703 73.49803161621094 30.84708404541016 73.49094390869141 30.7614631652832 73.47628784179688 C 30.74923324584961 73.47421264648438 30.73700714111328 73.47212982177734 30.72478103637695 73.47004699707031 C 30.72478103637695 73.47004699707031 30.7244758605957 73.46999359130859 30.7244758605957 73.46999359130859 C 30.72074890136719 73.46935272216797 30.71701812744141 73.46871948242188 30.71329116821289 73.46807861328125 C 30.71210098266602 73.46787261962891 30.71292495727539 73.468017578125 30.71173858642578 73.46781158447266 C 30.70785140991211 73.46714782714844 30.70397186279297 73.46648406982422 30.70008850097656 73.4658203125 C 30.70008850097656 73.4658203125 30.69980239868164 73.46576690673828 30.69980239868164 73.46576690673828 C 30.69608688354492 73.46513366699219 30.69237518310547 73.46449279785156 30.68866348266602 73.46385192871094 C 30.67796325683594 73.46201324462891 30.66774368286133 73.46025848388672 30.65704345703125 73.45840454101562 C 29.84379959106445 73.31587219238281 29.29913330078125 72.54255676269531 29.43967437744141 71.72818756103516 C 29.56579971313477 70.9974365234375 30.20080947875977 70.48133087158203 30.91829681396484 70.48139190673828 Z M 21.62298965454102 67.50563049316406 C 21.84074783325195 67.50565338134766 22.06199645996094 67.55322265625 22.27133560180664 67.65366363525391 L 22.35416412353516 67.69338989257812 C 23.10107421875 68.05173492431641 23.41690063476562 68.94812774658203 23.05956268310547 69.69552612304688 C 22.80226898193359 70.23367309570312 22.26623153686523 70.54782104492188 21.70737838745117 70.54782104492188 C 21.49140930175781 70.54782104492188 21.27195358276367 70.50086212158203 21.0639762878418 70.40179443359375 C 21.06292343139648 70.40129089355469 21.06130218505859 70.4005126953125 21.06024551391602 70.40000915527344 C 21.06019973754883 70.39998626708984 21.06019592285156 70.39998626708984 21.06015014648438 70.39996337890625 C 21.05995941162109 70.39987182617188 21.05977249145508 70.3997802734375 21.0595817565918 70.39968872070312 C 21.0395393371582 70.39010620117188 21.01984024047852 70.38066864013672 20.99981689453125 70.37104797363281 C 20.98987197875977 70.36627197265625 20.97992706298828 70.36148834228516 20.96998596191406 70.35669708251953 C 20.22307586669922 69.99835968017578 19.90890121459961 69.10276031494141 20.26826095581055 68.35633850097656 C 20.52689743041992 67.81911468505859 21.06380081176758 67.50558471679688 21.62298965454102 67.50563049316406 Z M 13.48902893066406 62.09940719604492 C 13.84210968017578 62.09943008422852 14.19669342041016 62.22315979003906 14.48208618164062 62.47494888305664 L 14.5510368347168 62.53578948974609 C 15.17224884033203 63.0838508605957 15.23222351074219 64.0323486328125 14.68498611450195 64.654296875 C 14.38875579833984 64.99097442626953 13.97534561157227 65.16294097900391 13.55986404418945 65.16294097900391 C 13.20780944824219 65.16294097900391 12.85426330566406 65.03945159912109 12.5693244934082 64.78806304931641 C 12.56000900268555 64.77986907958984 12.55070114135742 64.77167510986328 12.5413932800293 64.76347351074219 C 12.5413932800293 64.76347351074219 12.54093551635742 64.76306915283203 12.54093551635742 64.76306915283203 C 12.525390625 64.74935913085938 12.50985336303711 64.73563385009766 12.49432373046875 64.72190093994141 C 12.49379348754883 64.721435546875 12.49321746826172 64.72092437744141 12.4926872253418 64.72045135498047 C 12.4918212890625 64.71968841552734 12.49320983886719 64.72091674804688 12.49234390258789 64.72015380859375 C 11.87294387817383 64.17182922363281 11.81505584716797 63.22589492797852 12.36339950561523 62.60606384277344 C 12.66012954711914 62.27063369750977 13.07355499267578 62.09938049316406 13.48902893066406 62.09940719604492 Z M 7.124153137207031 54.68766403198242 C 7.617317199707031 54.68769073486328 8.100532531738281 54.93022155761719 8.387710571289062 55.37507629394531 L 8.437538146972656 55.45224761962891 C 8.886848449707031 56.14825057983398 8.687362670898438 57.07746124267578 7.991973876953125 57.5277099609375 C 7.740203857421875 57.69073104858398 7.457992553710938 57.76860046386719 7.179000854492188 57.76860046386719 C 6.687423706054688 57.76860046386719 6.205947875976562 57.52675628662109 5.9193115234375 57.08274841308594 C 5.910682678222656 57.06943130493164 5.902069091796875 57.05610275268555 5.893455505371094 57.04277038574219 C 5.892829895019531 57.04179382324219 5.891799926757812 57.04020690917969 5.89117431640625 57.03923034667969 C 5.889862060546875 57.03720092773438 5.8885498046875 57.0351676940918 5.887237548828125 57.03313446044922 C 5.885978698730469 57.03118515014648 5.884689331054688 57.02919006347656 5.883438110351562 57.02723693847656 C 5.882400512695312 57.02562713623047 5.881362915039062 57.02402114868164 5.880325317382812 57.02241134643555 C 5.879066467285156 57.02046203613281 5.877700805664062 57.01834869384766 5.876441955566406 57.01639556884766 C 5.875190734863281 57.01445007324219 5.873939514160156 57.01251220703125 5.872688293457031 57.01056671142578 C 5.872062683105469 57.00959014892578 5.870895385742188 57.00778198242188 5.870269775390625 57.00680541992188 C 5.868537902832031 57.00412750244141 5.866813659667969 57.00144195556641 5.865089416503906 56.99876403808594 C 5.865089416503906 56.99876403808594 5.865089416503906 56.99876403808594 5.865089416503906 56.99876403808594 C 5.864425659179688 56.99773025512695 5.863517761230469 56.99632263183594 5.862892150878906 56.99534606933594 C 5.416458129882812 56.29974365234375 5.617401123046875 55.37433624267578 6.312850952148438 54.92671203613281 C 6.564208984375 54.76492309570312 6.845741271972656 54.68764495849609 7.124153137207031 54.68766403198242 Z M 3.023918151855469 45.82725524902344 C 3.667427062988281 45.8272705078125 4.262985229492188 46.24423599243164 4.46038818359375 46.89138793945312 L 4.487213134765625 46.97930145263672 C 4.728912353515625 47.77168655395508 4.28277587890625 48.61086273193359 3.49072265625 48.8536491394043 C 3.344291687011719 48.89853668212891 3.196388244628906 48.91988372802734 3.050872802734375 48.91988372802734 C 2.409286499023438 48.91988372802734 1.815956115722656 48.50440979003906 1.618934631347656 47.85851287841797 C 1.612068176269531 47.83611297607422 1.605224609375 47.81369018554688 1.598388671875 47.79126358032227 C 1.594940185546875 47.77992248535156 1.591194152832031 47.76760482788086 1.587753295898438 47.75625610351562 C 1.350486755371094 46.96580505371094 1.796875 46.13231658935547 2.587409973144531 45.89234924316406 C 2.732704162597656 45.84824371337891 2.879501342773438 45.82724761962891 3.023918151855469 45.82725524902344 Z M 1.504974365234375 36.1810188293457 C 2.320228576660156 36.18109512329102 2.989654541015625 36.83417892456055 3.006126403808594 37.65278625488281 L 3.007972717285156 37.74463653564453 C 3.024650573730469 38.57289886474609 2.366737365722656 39.25873565673828 1.538497924804688 39.2765007019043 C 1.52752685546875 39.27673721313477 1.516609191894531 39.27685165405273 1.505691528320312 39.27685165405273 C 0.6922607421875 39.27685165405273 0.025115966796875 38.62626647949219 0.00867462158203125 37.80897521972656 C 0.00850677490234375 37.80110168457031 0.00833892822265625 37.79323196411133 0.00817108154296875 37.78535461425781 C 0.008148193359375 37.78411483764648 0.00806427001953125 37.78018188476562 0.00803375244140625 37.7789421081543 C 0.0080108642578125 37.77784729003906 0.00798797607421875 37.77674865722656 0.00797271728515625 37.77565383911133 C 0.0077362060546875 37.76448440551758 0.00750732421875 37.75302886962891 0.00728607177734375 37.74185562133789 C 0.00707244873046875 37.73096084594727 0.006866455078125 37.72006988525391 0.00666046142578125 37.70917510986328 C 0.00664520263671875 37.70841598510742 0.00662994384765625 37.70764923095703 0.00661468505859375 37.70689010620117 C 0.00661468505859375 37.70689010620117 0.00661468505859375 37.7066764831543 0.00661468505859375 37.7066764831543 C -0.00872802734375 36.8795051574707 0.64874267578125 36.19683456420898 1.476211547851562 36.1812858581543 C 1.485870361328125 36.18110656738281 1.495353698730469 36.18101501464844 1.504974365234375 36.1810188293457 Z M 2.652626037597656 26.48009872436523 C 2.7783203125 26.48009872436523 2.906097412109375 26.49603271484375 3.033424377441406 26.52937316894531 C 3.834823608398438 26.73922348022461 4.315261840820312 27.55924987792969 4.106498718261719 28.36093902587891 L 4.083351135253906 28.44982528686523 C 3.90740966796875 29.12546539306641 3.297897338867188 29.57367324829102 2.630485534667969 29.57367324829102 C 2.5059814453125 29.57367324829102 2.379341125488281 29.55804824829102 2.253250122070312 29.52539825439453 C 1.453285217285156 29.31824493408203 0.9727783203125 28.50357818603516 1.177581787109375 27.70381927490234 C 1.185043334960938 27.67497253417969 1.192604064941406 27.64591598510742 1.20013427734375 27.61709594726562 C 1.2015380859375 27.61172485351562 1.20294189453125 27.60635375976562 1.204353332519531 27.60098648071289 C 1.37994384765625 26.92666625976562 1.987190246582031 26.4800910949707 2.652626037597656 26.48009872436523 Z M 6.412796020507812 17.46939849853516 C 6.671775817871094 17.46941757202148 6.934310913085938 17.53667449951172 7.173576354980469 17.67802429199219 C 7.8868408203125 18.09938812255859 8.124237060546875 19.01964950561523 7.703834533691406 19.73347473144531 L 7.657188415527344 19.81268692016602 C 7.377273559570312 20.28798294067383 6.875968933105469 20.55258941650391 6.361259460449219 20.55258941650391 C 6.102935791015625 20.55258941650391 5.841178894042969 20.48590087890625 5.602447509765625 20.34573745727539 C 4.889488220214844 19.92714309692383 4.65069580078125 19.01129913330078 5.067596435546875 18.29808044433594 C 5.073486328125 18.28804779052734 5.078140258789062 18.28013229370117 5.084037780761719 18.27010726928711 C 5.0848388671875 18.26873397827148 5.085647583007812 18.26736831665039 5.086448669433594 18.26599502563477 C 5.087631225585938 18.26399230957031 5.088768005371094 18.26205825805664 5.089950561523438 18.26005172729492 C 5.100250244140625 18.24254989624023 5.110572814941406 18.22505187988281 5.120903015136719 18.20757675170898 C 5.400276184082031 17.73319244384766 5.899734497070312 17.4693603515625 6.412796020507812 17.46939849853516 Z M 12.48661804199219 9.821098327636719 C 12.88145446777344 9.821136474609375 13.27575302124023 9.976409912109375 13.57016372680664 10.28471374511719 C 14.14229965209961 10.88385009765625 14.12102508544922 11.83399963378906 13.52266311645508 12.40692520141602 L 13.45624923706055 12.47052383422852 C 13.16532135009766 12.74908447265625 12.7912483215332 12.88747787475586 12.41769027709961 12.88747787475586 C 12.02293395996094 12.88747787475586 11.62875747680664 12.73291015625 11.33397674560547 12.42587661743164 C 10.76139450073242 11.8294792175293 10.78017807006836 10.88314437866211 11.37500762939453 10.30986404418945 C 11.37751007080078 10.30746078491211 11.3792610168457 10.30577850341797 11.38176345825195 10.30337905883789 C 11.38200378417969 10.30314636230469 11.38225173950195 10.30290985107422 11.38249206542969 10.30267715454102 C 11.38582992553711 10.29947662353516 11.38759231567383 10.29778289794922 11.39093017578125 10.29458236694336 C 11.39157485961914 10.29396438598633 11.39221954345703 10.2933464050293 11.39286422729492 10.292724609375 C 11.40871810913086 10.27752304077148 11.42400741577148 10.26288604736328 11.43988418579102 10.24771118164062 C 11.44352340698242 10.24423599243164 11.44715881347656 10.24076080322266 11.45080184936523 10.23728561401367 C 11.74125289916992 9.959175109863281 12.11416625976562 9.821067810058594 12.48661804199219 9.821098327636719 Z M 20.40700912475586 4.106925964355469 C 20.94381332397461 4.106956481933594 21.46277618408203 4.396408081054688 21.73172378540039 4.904121398925781 C 22.11949920654297 5.636184692382812 21.84083938598633 6.5447998046875 21.10929870605469 6.933578491210938 L 21.02814865112305 6.976715087890625 C 20.80369567871094 7.096000671386719 20.56258773803711 7.152557373046875 20.32484436035156 7.152557373046875 C 19.78773880004883 7.152557373046875 19.26802444458008 6.863761901855469 18.99784851074219 6.357048034667969 C 18.60807418823242 5.62603759765625 18.88513565063477 4.718276977539062 19.61667633056641 4.329498291015625 C 19.64609909057617 4.313812255859375 19.675537109375 4.298164367675781 19.70501327514648 4.282546997070312 C 19.70541381835938 4.282333374023438 19.7057991027832 4.282135009765625 19.70619964599609 4.28192138671875 C 19.70722961425781 4.2813720703125 19.70684432983398 4.281578063964844 19.7078742980957 4.281036376953125 C 19.93125915527344 4.162910461425781 20.17079925537109 4.106910705566406 20.40700912475586 4.106925964355469 Z M 29.58599472045898 0.7750167846679688 C 30.27816009521484 0.7750473022460938 30.89973449707031 1.257400512695312 31.04946136474609 1.961936950683594 C 31.22167587280273 2.772262573242188 30.70457458496094 3.569664001464844 29.89447402954102 3.742973327636719 L 29.8046989440918 3.762184143066406 C 29.69889068603516 3.784828186035156 29.59331512451172 3.795700073242188 29.48927688598633 3.795700073242188 C 28.79679107666016 3.795700073242188 28.1737174987793 3.313697814941406 28.02208709716797 2.609611511230469 C 27.84809112548828 1.801689147949219 28.36058044433594 1.006523132324219 29.16735076904297 0.8306655883789062 C 29.18375396728516 0.8271331787109375 29.1982307434082 0.8240203857421875 29.21464538574219 0.8205032348632812 C 29.2259407043457 0.818084716796875 29.23724365234375 0.815673828125 29.24854278564453 0.813262939453125 C 29.25909805297852 0.8110122680664062 29.26679611206055 0.8093719482421875 29.2773551940918 0.8071365356445312 C 29.38092803955078 0.7854461669921875 29.48419952392578 0.7750167846679688 29.58599472045898 0.7750167846679688 Z" stroke="none" fill="#9d9d9d"/>
  </g>
</svg>
